<svg xmlns="http://www.w3.org/2000/svg" version="1.1" xmlns:xlink="http://www.w3.org/1999/xlink" xmlns:svgjs="http://svgjs.dev/svgjs" width="1000" height="1000"><style>
    #light-icon {
      display: inline;
    }
    #dark-icon {
      display: none;
    }

    @media (prefers-color-scheme: dark) {
      #light-icon {
        display: none;
      }
      #dark-icon {
        display: inline;
      }
    }
  </style><g id="light-icon"><svg xmlns="http://www.w3.org/2000/svg" version="1.1" xmlns:xlink="http://www.w3.org/1999/xlink" xmlns:svgjs="http://svgjs.dev/svgjs" width="1000" height="1000"><g clip-path="url(#SvgjsClipPath1546)"><rect width="1000" height="1000" fill="#000000"></rect><g transform="matrix(29.166666666666668,0,0,29.166666666666668,150,150)"><svg xmlns="http://www.w3.org/2000/svg" version="1.1" xmlns:xlink="http://www.w3.org/1999/xlink" xmlns:svgjs="http://svgjs.dev/svgjs" width="24" height="24"><svg xmlns="http://www.w3.org/2000/svg" width="24" height="24" viewBox="0 0 24 24" fill="none" stroke="#c8c2bd" stroke-width="2" stroke-linecap="round" stroke-linejoin="round" class="feather feather-film"><rect x="2" y="2" width="20" height="20" rx="2.18" ry="2.18"></rect><line x1="7" y1="2" x2="7" y2="22"></line><line x1="17" y1="2" x2="17" y2="22"></line><line x1="2" y1="12" x2="22" y2="12"></line><line x1="2" y1="7" x2="7" y2="7"></line><line x1="2" y1="17" x2="7" y2="17"></line><line x1="17" y1="17" x2="22" y2="17"></line><line x1="17" y1="7" x2="22" y2="7"></line></svg></svg></g></g><defs><clipPath id="SvgjsClipPath1546"><rect width="1000" height="1000" x="0" y="0" rx="250" ry="250"></rect></clipPath></defs></svg></g><g id="dark-icon"><svg xmlns="http://www.w3.org/2000/svg" version="1.1" xmlns:xlink="http://www.w3.org/1999/xlink" xmlns:svgjs="http://svgjs.dev/svgjs" width="1000" height="1000"><g clip-path="url(#SvgjsClipPath1547)"><rect width="1000" height="1000" fill="#ffffff"></rect><g transform="matrix(29.166666666666668,0,0,29.166666666666668,150,150)"><svg xmlns="http://www.w3.org/2000/svg" version="1.1" xmlns:xlink="http://www.w3.org/1999/xlink" xmlns:svgjs="http://svgjs.dev/svgjs" width="24" height="24"><svg xmlns="http://www.w3.org/2000/svg" width="24" height="24" viewBox="0 0 24 24" fill="none" stroke="currentColor" stroke-width="2" stroke-linecap="round" stroke-linejoin="round" class="feather feather-film"><rect x="2" y="2" width="20" height="20" rx="2.18" ry="2.18"></rect><line x1="7" y1="2" x2="7" y2="22"></line><line x1="17" y1="2" x2="17" y2="22"></line><line x1="2" y1="12" x2="22" y2="12"></line><line x1="2" y1="7" x2="7" y2="7"></line><line x1="2" y1="17" x2="7" y2="17"></line><line x1="17" y1="17" x2="22" y2="17"></line><line x1="17" y1="7" x2="22" y2="7"></line></svg></svg></g></g><defs><clipPath id="SvgjsClipPath1547"><rect width="1000" height="1000" x="0" y="0" rx="350" ry="350"></rect></clipPath></defs></svg></g></svg>